<svg width="103" height="24" viewBox="0 0 103 24" fill="none" xmlns="http://www.w3.org/2000/svg">
<g clip-path="url(#clip0_28_441)">
<path d="M0 21.4054V16.7342H0.130631C3.04955 20.2387 6.03153 22.3784 9.31081 22.3784C12.1982 22.3784 14.3694 20.8874 14.3694 18.3243C14.3694 16.6396 13.2342 15.4054 10.4459 14.2387L5.09459 11.9685C2.59459 10.8964 0.355856 9.14865 0.355856 6.16216C0.355856 3.17568 3.5045 0 8.56306 0C11.482 0 13.8198 0.90991 16.3153 2.3018V6.74324H16.1847C13.3964 3.5045 11.1892 1.62162 7.94595 1.62162C5.09009 1.62162 3.46847 3.5045 3.46847 5.25225C3.46847 6.77477 4.18018 7.97748 6.64865 8.98198L12.0991 11.2207C15.8604 12.7793 17.6126 14.4955 17.6126 17.2838C17.6126 21.3378 13.7523 24 9.14865 24C5.84234 24 3.01802 23.2883 0 21.4054Z" fill="black"/>
<path d="M21.0811 0.77928V0.648649H26.009V0.77928C25.4595 2.10811 25.1982 3.53604 25.1982 5.15766V18.8468C25.1982 20.4685 25.4595 21.8964 26.009 23.2252V23.3559H21.0811V23.2252C21.6306 21.8964 21.8919 20.4685 21.8919 18.8468V5.15766C21.8919 3.53604 21.6306 2.10811 21.0811 0.77928Z" fill="black"/>
<path d="M29.2883 12C29.2883 5.35135 34.6396 0 41.2252 0C44.5 0 47.1937 1.16667 49.3018 2.4955V7.13514H49.1712C46.6081 4.18468 44.4369 1.62162 40.6396 1.62162C36.2613 1.62162 33.0811 5.9009 33.0811 11.4189C33.0811 16.9369 36.3559 22.3829 42.1306 22.3829C43.8829 22.3829 45.1126 21.8333 46.509 20.7297V17.0315C46.509 15.4099 46.2477 13.982 45.6982 12.6532V12.5225H50.6261V12.6532C50.0766 13.982 49.8153 15.4099 49.8153 17.0315V21.7658C47.4459 23.0315 44.3964 24.0045 41.3829 24.0045C34.4414 24.0045 29.2838 18.6532 29.2838 12.0045L29.2883 12Z" fill="black"/>
<path d="M63.7297 20.6306L57.0135 3.95946V18.8468C57.0135 20.4685 57.2748 21.8964 57.8243 23.2252V23.3559H54.1892V23.2252C54.7387 21.8964 55 20.4685 55 18.8468V5.15766C55 3.53604 54.7387 2.10811 54.1892 0.77928V0.648649H59.2162C59.2793 1.07207 59.4414 1.52252 59.6036 1.94595L66.482 19.2027L73.1306 1.94595C73.2928 1.52252 73.455 1.07207 73.518 0.648649H78.4144V0.77928C77.8649 2.10811 77.6036 3.53604 77.6036 5.15766V18.8468C77.6036 20.4685 77.8649 21.8964 78.4144 23.2252V23.3559H73.5496V23.2252C74.0991 21.8964 74.3604 20.4685 74.3604 18.8468V3.89189L67.973 20.6306C67.6171 21.5405 67.2928 22.4775 67.0991 23.3559H64.6667C64.4414 22.482 64.0811 21.5405 63.7252 20.6306H63.7297Z" fill="black"/>
<path d="M83.0901 18.3243L88.7973 3.46847C89.3153 2.13964 88.8964 1.32883 88.5045 0.774775V0.644144H92.9144C92.9775 1.0991 93.2703 2.0045 93.6622 2.97748L99.5315 18.3198C100.374 20.4955 101.216 22.1486 102.027 23.2162V23.3468H96.5766V23.2162C97.0315 21.5631 97 20.6216 96.1216 18.3514L95.3739 16.3739H85.8063L85.0586 18.3514C84.1847 20.6216 84.1487 21.5631 84.6036 23.2162V23.3468H80.5811V23.2162C81.3919 22.1441 82.2342 20.491 83.0766 18.3198L83.0901 18.3243ZM94.7342 14.7568L90.5811 3.95495L86.464 14.7568H94.7342Z" fill="black"/>
</g>
<defs>
<clipPath id="clip0_28_441">
<rect width="102.032" height="24" fill="white"/>
</clipPath>
</defs>
</svg>
